<?xml version="1.0" encoding="UTF-8"?>
<svg width="580px" height="160px" viewBox="0 0 580 160" version="1.1" xmlns="http://www.w3.org/2000/svg" xmlns:xlink="http://www.w3.org/1999/xlink">
    <!-- Generator: Sketch 61 (89581) - https://sketch.com -->
    <title>logo</title>
    <desc>Created with Sketch.</desc>
    <g id="logo" stroke="none" stroke-width="1" fill="none" fill-rule="evenodd">
        <g id="标" transform="translate(18.000000, 41.000000)" fill="#000000" fill-rule="nonzero">
            <path d="M144.527527,31.1843291 L129.10556,47.5497232 C127.00858,49.7749843 123.504711,49.8789767 121.27945,47.7819967 C121.044892,47.5609607 120.830084,47.3198648 120.637472,47.0614563 L104.510947,25.4260638 C102.90528,23.2718957 103.078032,20.2758354 104.920652,18.3204943 L120.342619,1.95510021 C122.439599,-0.27016094 125.943468,-0.374153338 128.168729,1.72282669 C128.403287,1.94386273 128.618095,2.18495856 128.810707,2.4433671 L144.937232,24.0787596 C146.542899,26.2329277 146.370147,29.228988 144.527527,31.1843291 Z" id="路径"></path>
            <path d="M115.839273,61.696495 L100.417306,78.061889 C98.3203256,80.2871502 94.8164568,80.3911426 92.5911957,78.2941626 C92.3566379,78.0731265 92.1418294,77.8320307 91.9492176,77.5736222 L52.9767833,25.2880904 C51.3711158,23.1339222 51.5438676,20.137862 53.3864879,18.1825208 L68.8084551,1.81712675 C70.9054351,-0.408134404 74.4093039,-0.512126801 76.634565,1.58485323 C76.8691228,1.80588927 77.0839313,2.0469851 77.2765431,2.30539363 L116.248977,54.5909254 C117.854645,56.7450936 117.681893,59.7411538 115.839273,61.696495 Z" id="路径" opacity="0.75"></path>
            <path d="M115.810585,61.6580076 L100.388618,78.0234017 C98.291638,80.2486628 94.7877693,80.3526552 92.5625081,78.2556752 C92.3279504,78.0346392 92.1131418,77.7935433 91.92053,77.5351348 L73.0177174,52.1750661 L96.1506682,27.626975 L116.22029,54.5524381 C117.825957,56.7066062 117.653206,59.7026665 115.810585,61.6580076 Z" id="路径"></path>
            <path d="M25.416552,2.3583003 L64.3889863,54.6438321 C65.9946538,56.7980003 65.821902,59.7940605 63.9792818,61.7494017 L48.5573146,78.1147957 C46.4603345,80.3400569 42.9564657,80.4440493 40.7312046,78.3470692 C40.4966468,78.1260332 40.2818383,77.8849374 40.0892265,77.6265288 L1.11679221,25.340997 C-0.488875262,23.1868289 -0.316123516,20.1907686 1.52649677,18.2354275 L16.948464,1.87003342 C19.045444,-0.355227731 22.5493128,-0.459220128 24.7745739,1.6377599 C25.0091317,1.85879594 25.2239402,2.09989177 25.416552,2.3583003 Z" id="路径" opacity="0.5"></path>
            <path d="M44.3551354,27.7663592 L64.4247571,54.6918223 C66.0304246,56.8459904 65.8576728,59.8420507 64.0150525,61.7973918 L48.5930853,78.1627859 C46.4961053,80.388047 42.9922365,80.4920394 40.7669754,78.3950594 C40.5324176,78.1740234 40.3176091,77.9329275 40.1249973,77.674519 L21.2221846,52.3144503 L44.3551354,27.7663592 Z" id="路径" opacity="0.5"></path>
        </g>
        <g id="字" transform="translate(189.000000, 41.000000)" fill="#000000" fill-rule="nonzero">
            <path d="M19.9490683,44.3726708 C21.6848861,38.5424431 23.4140787,32.710559 25.136646,26.8770186 C26.6521739,21.7242236 28.7341615,19.6571429 32.3863354,19.7167702 C36.0385093,19.7763975 38.0360248,21.9130435 39.3776398,27.1403727 C40.868323,32.8695652 42.2993789,38.6086957 43.9540373,45.0881988 C44.4807453,43.7565217 44.7689441,43.1304348 44.9726708,42.484472 C46.647205,37.2919255 48.2968944,32.0944099 49.9416149,26.8968944 C50.2198758,26.0322981 50.4931677,25.1627329 50.8409938,24.3279503 C52.4509317,20.5118012 55.8745342,18.8621118 59.447205,20.1391304 C62.4285714,21.2124224 63.7950311,24.4074534 62.6074534,28.2534161 C61.0024845,33.4658385 59.2037267,38.6186335 57.4795031,43.7962733 C55.1838509,50.6931677 52.8981366,57.6 50.5726708,64.4919255 C49.3801242,68.0397516 47.0695652,69.8434783 43.9391304,69.7937888 C40.6695652,69.7391304 38.4732919,67.8062112 37.4397516,64.0695652 C35.8198758,58.1714286 34.2248447,52.263354 32.6099379,46.3652174 C32.4658385,45.8434783 32.2173913,45.3465839 31.8596273,44.4223602 C29.8968944,51.284472 28.068323,57.7043478 26.2198758,64.1142857 C25.1863354,67.7714286 22.8509317,69.7639752 19.6708075,69.8136646 C16.5652174,69.8136646 14.2049689,68 13.0173913,64.5018634 C9.10186335,52.8248447 5.20952381,41.1378882 1.34037267,29.4409938 C0.986414508,28.3406671 0.784137398,27.1972163 0.739130435,26.042236 C0.609937888,22.9714286 1.85217391,20.9838509 4.26708075,20.1490683 C7.03478261,19.1900621 9.98136646,19.9055901 11.6012422,22.2459627 C12.4986731,23.6318538 13.1962217,25.1373543 13.6732919,26.7180124 C15.626087,32.5962733 17.4745342,38.5043478 19.3627329,44.3975155 L19.9490683,44.3726708 Z" id="路径"></path>
            <path d="M238.170186,33.7639752 C232.614907,32.7006211 230.602484,31.0708075 230.453416,27.6720497 C230.299379,24.1639752 232.187578,22.489441 238.234783,20.9888199 C238.234783,17.7987578 238.110559,14.5291925 238.269565,11.2347826 C238.428571,7.94037267 240.92795,5.66956522 244.27205,5.41118012 C247.47205,5.16273292 250.473292,7.26459627 251.109317,10.3304348 C251.267855,11.3925794 251.324428,12.4674541 251.278261,13.5403727 C251.308075,15.8559006 251.278261,18.1763975 251.318012,20.4968944 C251.369234,20.8076199 251.440606,21.1146859 251.531677,21.4161491 C252.78882,21.4161491 254.15528,21.3763975 255.506832,21.4161491 C259.715528,21.5701863 262.180124,23.8409938 262.15528,27.4981366 C262.125466,31.0459627 259.501863,33.3515528 255.337888,33.4608696 C254.10559,33.4956522 252.853416,33.4608696 251.586335,33.4608696 C251.450078,33.7980414 251.353366,34.149872 251.298137,34.5093168 C251.298137,40.0496894 251.218634,45.5950311 251.298137,51.1354037 C251.357764,55.0459627 252.888199,56.4919255 256.699379,56.5714286 C261.171429,56.6658385 263.834783,59.0310559 263.914286,62.9962733 C263.993789,66.7726708 261.096894,69.5701863 256.873292,69.7888199 C246.751553,70.310559 238.706832,63.1453416 238.304348,53.0236025 C238.075776,47.4931677 238.209938,41.9428571 238.185093,36.4024845 C238.165217,35.5279503 238.170186,34.6136646 238.170186,33.7639752 Z" id="路径"></path>
            <path d="M126.006211,30.2857143 C126.006211,22.5888199 126.006211,14.8819876 126.006211,7.2 C126.006211,4.60124224 127.054658,2.50434783 129.385093,1.26708075 C131.532456,0.0498823856 134.180696,0.138157061 136.242236,1.49565217 C138.801242,3.08571429 139.253416,5.65465839 139.248447,8.42236025 C139.228571,22.2426501 139.228571,36.0612836 139.248447,49.8782609 C139.248447,50.8720497 139.248447,51.8658385 139.298137,52.8596273 C139.382609,55.1751553 139.968944,56.7055901 142.895652,56.6906832 C146.448447,56.6906832 148.639752,58.9763975 148.992547,62.3055901 C149.345342,65.6347826 147.571429,68.2037267 144.301863,69.2919255 C139.303106,70.9565217 133.002484,68.7204969 129.608696,64.0397516 C127.039752,60.4968944 126.036025,56.447205 126.01118,52.1142857 C126.006211,44.8496894 126.006211,37.5652174 126.006211,30.2857143 Z" id="路径"></path>
            <path d="M154.274534,30.3701863 C154.274534,22.5093168 154.219876,14.6484472 154.304348,6.79254658 C154.33913,3.35900621 156.550311,1.02360248 159.859627,0.541614907 C163.034783,0.0844720497 166.021118,1.73416149 166.940373,4.68074534 C167.270733,5.95834256 167.40972,7.2778834 167.352795,8.59627329 C167.382609,22.5093168 167.382609,36.4091097 167.352795,50.2956522 C167.352795,51.289441 167.352795,52.2832298 167.467081,53.2770186 C167.66087,55.3937888 168.36646,56.6956522 170.980124,56.6857143 C174.567702,56.6857143 176.843478,58.9614907 177.181366,62.2111801 C177.529193,65.6099379 175.730435,68.2484472 172.331677,69.3267081 C167.248447,70.936646 161.111801,68.6807453 157.703106,63.910559 C155.50495,60.8736677 154.312946,57.2246769 154.29441,53.4757764 C154.229814,45.7838509 154.29441,38.0720497 154.29441,30.3900621 L154.274534,30.3701863 Z" id="路径"></path>
            <path d="M309.956522,44.8049689 C309.956522,50.6732919 309.956522,56.5416149 309.956522,62.4099379 C309.926708,66.9714286 307.427329,69.7540373 303.417391,69.7942019 C299.407453,69.8335404 296.669565,67.0012422 296.64472,62.5590062 C296.575155,50.6567288 296.575155,38.757764 296.64472,26.8621118 C296.674534,22.4397516 299.541615,19.6173913 303.506832,19.7267081 C307.47205,19.8360248 309.91677,22.5391304 309.96646,26.9565217 C309.986335,32.9043478 309.956522,38.8571429 309.956522,44.8049689 Z" id="路径"></path>
            <path d="M269.519255,63.0409938 C269.429969,60.0989509 270.941856,57.3395165 273.469452,55.8312565 C275.997047,54.3229964 279.143453,54.3027468 281.690253,55.7783491 C284.237052,57.2539513 285.784331,59.9936975 285.732919,62.936646 C285.822205,65.8786889 284.310318,68.6381233 281.782722,70.1463833 C279.255127,71.6546433 276.108721,71.674893 273.561921,70.1992907 C271.015122,68.7236884 269.467843,65.9839422 269.519255,63.0409938 Z" id="路径"></path>
            <path d="M303.223602,17.2720497 C300.376643,17.304817 297.735063,15.7936851 296.32025,13.3229447 C294.905437,10.8522043 294.939153,7.80912584 296.408361,5.37033882 C297.877568,2.9315518 300.551981,1.47931821 303.397516,1.57515528 C306.2436,1.54649831 308.882293,3.06045384 310.293898,5.53196886 C311.705503,8.00348389 311.668911,11.0454279 310.198263,13.4822719 C308.727614,15.9191159 306.053267,17.3691603 303.208696,17.2720497 L303.223602,17.2720497 Z" id="路径"></path>
            <path d="M215.268323,22.0819876 C201.673292,15.0807453 179.765217,21.5304348 179.318012,44.5217391 C179.119255,54.7726708 183.576398,62.8720497 193.077019,67.378882 C203.014907,72.0695652 212.719255,70.9515528 221.653416,64.5515528 C224.759006,62.3254658 224.699379,58.3403727 221.87205,55.7465839 C219.621118,53.684472 216.590062,53.4409938 213.63354,55.3242236 C210.368944,57.3913043 206.890683,58.4198758 203.024845,57.8881988 C198.393789,57.2571429 194.90559,55.0111801 192.649689,50.1465839 L195.919255,50.1465839 C203.944099,50.1465839 211.968944,50.1763975 219.993789,50.1465839 C223.968944,50.1465839 226.592547,48.263354 226.840994,45.0981366 C227.501863,36.8397516 224.187578,26.6782609 215.268323,22.0819876 Z M193.216149,38.4795031 C194.38882,33.9329193 198.781366,31.3242236 204.704348,31.5229814 C209.21118,31.6869565 212.654658,34.4049689 213.44472,38.4795031 L193.216149,38.4795031 Z" id="形状"></path>
            <path d="M116.565217,43.731677 C116.199829,34.3692351 110.66875,25.9830299 102.206408,21.9608922 C93.7440654,17.9387545 83.7486539,18.9452438 76.2580858,24.5737619 C68.7675177,30.2022801 65.0194253,39.5228527 66.5279503,48.7701863 C68.1378882,58.5888199 73.1416149,65.863354 82.8857143,69.0136646 C90.1552795,71.3639752 97.0919255,70.1167702 103.531677,65.7291925 C106.219876,69.4409938 108.913043,70.5838509 112.103106,69.5254658 C115.293168,68.4670807 116.614907,66.1863354 116.614907,61.8583851 C116.614907,55.8161491 116.719255,49.7689441 116.565217,43.731677 Z M91.4124224,57.7838509 C84.510559,57.7142857 79.2931677,52.0993789 79.3129869,44.7652174 C79.3129869,37.3118012 84.6993789,31.6720497 91.6906832,31.8062112 C98.6819876,31.9403727 103.645963,37.4509317 103.645963,44.9192547 C103.581366,52.2981366 98.3043478,57.8534161 91.4024845,57.7838509 L91.4124224,57.7838509 Z" id="形状"></path>
            <path d="M347.154037,19.4631447 C332.421118,19.4086957 321.812422,30.0621118 321.812422,44.8496894 C321.852174,59.4732919 332.450932,70.1018634 347.04472,70.1467239 C361.638509,70.1913043 372.187578,59.5180124 372.217454,44.8347826 C372.247205,30.1515528 361.722981,19.5130435 347.154037,19.4631447 Z M347.04472,57.7790526 C339.924224,57.7490683 334.741615,52.1490683 334.870807,44.6310559 C335,37.1130435 340.018634,31.8062112 347.089441,31.8012422 C354.299379,31.8012422 359.198758,37.1229814 359.154037,44.9242236 C359.109317,52.5267081 354.130435,57.8136646 347.04472,57.7790526 Z" id="形状"></path>
        </g>
    </g>
</svg>